<mxfile host="app.diagrams.net" modified="2023-08-29T11:49:07.674Z" agent="Mozilla/5.0 (Windows NT 10.0; Win64; x64) AppleWebKit/537.36 (KHTML, like Gecko) Chrome/116.0.0.0 Safari/537.36" etag="8BF_BQEeIZ77wVfXwM4o" version="21.6.9" type="device">
  <diagram name="PÃ¡gina-1" id="dXGVeo-yZuurbDG9YJS1">
    <mxGraphModel dx="1434" dy="758" grid="1" gridSize="10" guides="1" tooltips="1" connect="1" arrows="1" fold="1" page="1" pageScale="1" pageWidth="827" pageHeight="1169" math="0" shadow="0">
      <root>
        <mxCell id="0" />
        <mxCell id="1" parent="0" />
        <mxCell id="ZfAGzNZ2PueRjW1daWTj-1" value="Package diagram" style="text;strokeColor=none;fillColor=none;html=1;fontSize=24;fontStyle=1;verticalAlign=middle;align=center;" vertex="1" parent="1">
          <mxGeometry x="600" y="50" width="100" height="40" as="geometry" />
        </mxCell>
        <mxCell id="ZfAGzNZ2PueRjW1daWTj-3" value="Project: Fleet management system" style="text;align=center;fontStyle=1;verticalAlign=middle;spacingLeft=3;spacingRight=3;strokeColor=none;rotatable=0;points=[[0,0.5],[1,0.5]];portConstraint=eastwest;html=1;" vertex="1" parent="1">
          <mxGeometry x="610" y="80" width="80" height="26" as="geometry" />
        </mxCell>
        <mxCell id="ZfAGzNZ2PueRjW1daWTj-4" value="&amp;nbsp; +Hire()&lt;br&gt;&lt;div style=&quot;&quot;&gt;&lt;span style=&quot;background-color: initial;&quot;&gt;&amp;nbsp; +Leave()&lt;/span&gt;&lt;/div&gt;&lt;div style=&quot;&quot;&gt;&lt;span style=&quot;background-color: initial;&quot;&gt;&amp;nbsp; +Auth()&lt;/span&gt;&lt;/div&gt;&lt;div style=&quot;&quot;&gt;&lt;span style=&quot;background-color: initial;&quot;&gt;&amp;nbsp; +Logout()&lt;/span&gt;&lt;/div&gt;" style="shape=folder;fontStyle=1;spacingTop=10;tabWidth=100;tabHeight=30;tabPosition=left;html=1;whiteSpace=wrap;align=left;" vertex="1" parent="1">
          <mxGeometry x="70" y="230" width="210" height="120" as="geometry" />
        </mxCell>
        <mxCell id="ZfAGzNZ2PueRjW1daWTj-5" value="&lt;div style=&quot;&quot;&gt;&lt;span style=&quot;background-color: initial;&quot;&gt;&amp;nbsp; &amp;nbsp;+Assign()&lt;/span&gt;&lt;/div&gt;&lt;div style=&quot;&quot;&gt;&lt;span style=&quot;background-color: initial;&quot;&gt;&amp;nbsp; &amp;nbsp;+Maintain()&lt;/span&gt;&lt;/div&gt;&lt;div style=&quot;&quot;&gt;&lt;span style=&quot;background-color: initial;&quot;&gt;&amp;nbsp; &amp;nbsp;+Buy()&lt;/span&gt;&lt;/div&gt;&lt;div style=&quot;&quot;&gt;&lt;span style=&quot;background-color: initial;&quot;&gt;&amp;nbsp; &amp;nbsp;+Sell()&lt;/span&gt;&lt;/div&gt;" style="shape=folder;fontStyle=1;spacingTop=10;tabWidth=100;tabHeight=30;tabPosition=left;html=1;whiteSpace=wrap;align=left;" vertex="1" parent="1">
          <mxGeometry x="400" y="230" width="210" height="120" as="geometry" />
        </mxCell>
        <mxCell id="ZfAGzNZ2PueRjW1daWTj-6" value="&amp;nbsp; &amp;nbsp;+Assembly()" style="shape=folder;fontStyle=1;spacingTop=10;tabWidth=100;tabHeight=30;tabPosition=left;html=1;whiteSpace=wrap;align=left;" vertex="1" parent="1">
          <mxGeometry x="740" y="230" width="210" height="120" as="geometry" />
        </mxCell>
        <mxCell id="ZfAGzNZ2PueRjW1daWTj-7" value="&lt;div style=&quot;&quot;&gt;&lt;span style=&quot;background-color: initial;&quot;&gt;&amp;nbsp; &amp;nbsp;+AddContract()&lt;/span&gt;&lt;/div&gt;&lt;div style=&quot;&quot;&gt;&lt;span style=&quot;background-color: initial;&quot;&gt;&amp;nbsp; &amp;nbsp;+DeleteContract()&lt;/span&gt;&lt;/div&gt;" style="shape=folder;fontStyle=1;spacingTop=10;tabWidth=100;tabHeight=30;tabPosition=left;html=1;whiteSpace=wrap;align=left;" vertex="1" parent="1">
          <mxGeometry x="70" y="440" width="210" height="120" as="geometry" />
        </mxCell>
        <mxCell id="ZfAGzNZ2PueRjW1daWTj-8" value="&amp;nbsp; &amp;nbsp;+Start()&lt;br&gt;&amp;nbsp; &amp;nbsp;+Finish()&lt;br&gt;&amp;nbsp; &amp;nbsp;+Supply()" style="shape=folder;fontStyle=1;spacingTop=10;tabWidth=100;tabHeight=30;tabPosition=left;html=1;whiteSpace=wrap;align=left;" vertex="1" parent="1">
          <mxGeometry x="400" y="440" width="210" height="120" as="geometry" />
        </mxCell>
        <mxCell id="ZfAGzNZ2PueRjW1daWTj-9" value="&amp;nbsp; Personnel" style="text;html=1;strokeColor=none;fillColor=none;align=left;verticalAlign=middle;whiteSpace=wrap;rounded=0;" vertex="1" parent="1">
          <mxGeometry x="72" y="230" width="90" height="30" as="geometry" />
        </mxCell>
        <mxCell id="ZfAGzNZ2PueRjW1daWTj-10" value="&amp;nbsp; Vehicles" style="text;html=1;strokeColor=none;fillColor=none;align=left;verticalAlign=middle;whiteSpace=wrap;rounded=0;" vertex="1" parent="1">
          <mxGeometry x="402" y="230" width="100" height="30" as="geometry" />
        </mxCell>
        <mxCell id="ZfAGzNZ2PueRjW1daWTj-11" value="&amp;nbsp; Parts" style="text;html=1;strokeColor=none;fillColor=none;align=left;verticalAlign=middle;whiteSpace=wrap;rounded=0;" vertex="1" parent="1">
          <mxGeometry x="740" y="230" width="90" height="30" as="geometry" />
        </mxCell>
        <mxCell id="ZfAGzNZ2PueRjW1daWTj-12" value="&amp;nbsp; &amp;nbsp;Partners" style="text;html=1;strokeColor=none;fillColor=none;align=left;verticalAlign=middle;whiteSpace=wrap;rounded=0;" vertex="1" parent="1">
          <mxGeometry x="70" y="440" width="102" height="30" as="geometry" />
        </mxCell>
        <mxCell id="ZfAGzNZ2PueRjW1daWTj-13" value="&amp;nbsp; &amp;nbsp;Maintainance" style="text;html=1;strokeColor=none;fillColor=none;align=left;verticalAlign=middle;whiteSpace=wrap;rounded=0;" vertex="1" parent="1">
          <mxGeometry x="400" y="440" width="100" height="30" as="geometry" />
        </mxCell>
        <mxCell id="ZfAGzNZ2PueRjW1daWTj-16" value="" style="endArrow=open;html=1;rounded=0;endFill=0;dashed=1;dashPattern=8 8;" edge="1" parent="1">
          <mxGeometry width="50" height="50" relative="1" as="geometry">
            <mxPoint x="840" y="520" as="sourcePoint" />
            <mxPoint x="840" y="350" as="targetPoint" />
          </mxGeometry>
        </mxCell>
        <mxCell id="ZfAGzNZ2PueRjW1daWTj-17" value="" style="endArrow=open;html=1;rounded=0;endFill=0;dashed=1;dashPattern=8 8;entryX=-0.01;entryY=0.683;entryDx=0;entryDy=0;entryPerimeter=0;" edge="1" parent="1" target="ZfAGzNZ2PueRjW1daWTj-8">
          <mxGeometry width="50" height="50" relative="1" as="geometry">
            <mxPoint x="280" y="520" as="sourcePoint" />
            <mxPoint x="360" y="520" as="targetPoint" />
          </mxGeometry>
        </mxCell>
        <mxCell id="ZfAGzNZ2PueRjW1daWTj-18" value="" style="endArrow=open;html=1;rounded=0;endFill=0;dashed=1;dashPattern=8 8;" edge="1" parent="1">
          <mxGeometry width="50" height="50" relative="1" as="geometry">
            <mxPoint x="520" y="350" as="sourcePoint" />
            <mxPoint x="520" y="470" as="targetPoint" />
          </mxGeometry>
        </mxCell>
        <mxCell id="ZfAGzNZ2PueRjW1daWTj-21" value="" style="endArrow=open;html=1;rounded=0;endFill=0;dashed=1;dashPattern=8 8;" edge="1" parent="1">
          <mxGeometry width="50" height="50" relative="1" as="geometry">
            <mxPoint x="200" y="350" as="sourcePoint" />
            <mxPoint x="200" y="460" as="targetPoint" />
          </mxGeometry>
        </mxCell>
        <mxCell id="ZfAGzNZ2PueRjW1daWTj-22" value="" style="endArrow=open;html=1;rounded=0;endFill=0;dashed=1;dashPattern=8 8;entryX=-0.014;entryY=0.758;entryDx=0;entryDy=0;entryPerimeter=0;" edge="1" parent="1">
          <mxGeometry width="50" height="50" relative="1" as="geometry">
            <mxPoint x="280" y="300" as="sourcePoint" />
            <mxPoint x="397.05999999999995" y="300.96000000000004" as="targetPoint" />
          </mxGeometry>
        </mxCell>
        <mxCell id="ZfAGzNZ2PueRjW1daWTj-23" value="" style="endArrow=open;html=1;rounded=0;endFill=0;dashed=1;dashPattern=8 8;" edge="1" parent="1">
          <mxGeometry width="50" height="50" relative="1" as="geometry">
            <mxPoint x="610" y="300" as="sourcePoint" />
            <mxPoint x="730" y="301" as="targetPoint" />
          </mxGeometry>
        </mxCell>
        <mxCell id="ZfAGzNZ2PueRjW1daWTj-24" value="" style="endArrow=none;html=1;rounded=0;dashed=1;dashPattern=8 8;" edge="1" parent="1">
          <mxGeometry width="50" height="50" relative="1" as="geometry">
            <mxPoint x="612" y="520" as="sourcePoint" />
            <mxPoint x="840" y="520" as="targetPoint" />
          </mxGeometry>
        </mxCell>
      </root>
    </mxGraphModel>
  </diagram>
</mxfile>
